<?xml version="1.0" encoding="UTF-8"?>
<svg width="24" height="24" viewBox="0 0 24 24" fill="none" xmlns="http://www.w3.org/2000/svg">
  <path d="M22.05 2.793c-.3-.137-1.425-.175-2.825.475-1.4.637-18.188 7.225-19.1 7.563-.238.087-.863.35-.863 1.137 0 .575.438.875.875 1.075l4.675 1.55c.212.638 1.45 4.375 1.725 5.225.163.513.288.875.5 1.125.1.125.225.238.363.313.075.037.15.05.225.05.25 0 .45-.125.55-.188l2.85-2.425 4.625 3.675c.25.15.525.225.787.225.488 0 .913-.25 1.063-.913.162-.675 2.037-10.387 2.375-12.037.4-1.9.162-2.625-.05-2.9-.125-.162-.35-.3-.675-.375zm-2.975 2.9L8.95 13.618l-.087 3.813s-.163-1.463-.338-3.05L19.075 5.693z" fill="currentColor"/>
</svg> 