<svg width="24" height="24" viewBox="0 0 24 24" fill="none" xmlns="http://www.w3.org/2000/svg">
<path d="M18.9308 5.37891C17.6561 4.79401 16.2892 4.36308 14.8599 4.11627C14.8339 4.11151 14.8079 4.12341 14.7945 4.14722C14.6187 4.4599 14.4239 4.86781 14.2876 5.18843C12.7503 4.95829 11.221 4.95829 9.71527 5.18843C9.57887 4.86069 9.37707 4.4599 9.20048 4.14722C9.18707 4.1242 9.16107 4.1123 9.13504 4.11627C7.70659 4.36229 6.33963 4.79322 5.06411 5.37891C5.05307 5.38367 5.04361 5.39162 5.03732 5.40193C2.44449 9.27556 1.73421 13.054 2.08265 16.7856C2.08423 16.8038 2.09447 16.8213 2.10867 16.8324C3.81934 18.0887 5.47642 18.8513 7.10273 19.3569C7.12876 19.3648 7.15634 19.3553 7.1729 19.3338C7.55761 18.8085 7.90054 18.2545 8.19456 17.672C8.21192 17.6379 8.19535 17.5974 8.15989 17.5839C7.61594 17.3776 7.098 17.126 6.59977 16.8403C6.56037 16.8173 6.55721 16.7609 6.59347 16.734C6.69831 16.6554 6.80318 16.5736 6.9033 16.4911C6.92141 16.476 6.94665 16.4729 6.96794 16.4824C10.2411 17.9768 13.7846 17.9768 17.0191 16.4824C17.0404 16.4721 17.0657 16.4753 17.0846 16.4903C17.1847 16.5729 17.2895 16.6554 17.3952 16.734C17.4314 16.7609 17.4291 16.8173 17.3897 16.8403C16.8914 17.1316 16.3735 17.3776 15.8288 17.5831C15.7933 17.5966 15.7775 17.6379 15.7949 17.672C16.0952 18.2537 16.4381 18.8077 16.8157 19.3331C16.8315 19.3553 16.8599 19.3648 16.8859 19.3569C18.5201 18.8513 20.1772 18.0887 21.8879 16.8324C21.9028 16.8213 21.9123 16.8046 21.9139 16.7863C22.3309 12.4722 21.2154 8.7248 18.9568 5.40271C18.9513 5.39162 18.9419 5.38367 18.9308 5.37891ZM8.68335 14.5134C7.69792 14.5134 6.88594 13.6087 6.88594 12.4976C6.88594 11.3866 7.68217 10.4819 8.68335 10.4819C9.69239 10.4819 10.4965 11.3945 10.4807 12.4976C10.4807 13.6087 9.68451 14.5134 8.68335 14.5134ZM15.329 14.5134C14.3435 14.5134 13.5316 13.6087 13.5316 12.4976C13.5316 11.3866 14.3278 10.4819 15.329 10.4819C16.338 10.4819 17.1421 11.3945 17.1264 12.4976C17.1264 13.6087 16.338 14.5134 15.329 14.5134Z" fill="#527382"/>
</svg>
