<svg width="18" height="18" viewBox="0 0 18 18" fill="none" xmlns="http://www.w3.org/2000/svg">
<path d="M8.99996 0.666666C4.40496 0.666666 0.666626 4.405 0.666626 9C0.666626 13.595 4.40496 17.3333 8.99996 17.3333C13.595 17.3333 17.3333 13.595 17.3333 9C17.3333 4.405 13.595 0.666666 8.99996 0.666666ZM15.6091 8.16667H13.3058C13.203 6.3427 12.6927 4.56497 11.8125 2.96417C12.8326 3.44087 13.7157 4.16783 14.3795 5.07743C15.0433 5.98702 15.4663 7.04971 15.6091 8.16667ZM9.44163 2.35583C10.3041 3.4925 11.4641 5.50583 11.6308 8.16667H6.52496C6.64079 6.00333 7.35329 3.97667 8.56746 2.355C8.71079 2.34667 8.85413 2.33333 8.99996 2.33333C9.14913 2.33333 9.29496 2.34667 9.44163 2.35583ZM6.23996 2.93917C5.41996 4.515 4.94663 6.30167 4.85829 8.16667H2.39079C2.53477 7.03986 2.96382 5.96842 3.63737 5.05368C4.31092 4.13894 5.20669 3.41116 6.23996 2.93917ZM2.39079 9.83333H4.86913C4.98246 11.8158 5.42329 13.565 6.16579 15.025C5.15095 14.5466 4.27307 13.8201 3.61326 12.9127C2.95345 12.0053 2.53301 10.9462 2.39079 9.83333ZM8.54163 15.6442C7.37413 14.2292 6.68496 12.2467 6.53413 9.83333H11.6283C11.455 12.1442 10.6975 14.1633 9.45913 15.6433C9.30746 15.6533 9.15579 15.6667 8.99996 15.6667C8.84496 15.6667 8.69413 15.6533 8.54163 15.6442ZM11.8841 15.0008C12.68 13.5058 13.1658 11.75 13.2933 9.83333H15.6083C15.4677 10.9369 15.0533 11.9878 14.4028 12.8903C13.7524 13.7928 12.8865 14.5183 11.8841 15.0008Z" fill="#527382"/>
</svg>
