<svg width="20" height="20" viewBox="0 0 20 20" fill="none" xmlns="http://www.w3.org/2000/svg">
<g clip-path="url(#clip0_239_3616)">
<path fill-rule="evenodd" clip-rule="evenodd" d="M3.18446 14.5644L3.18441 14.5642L3.18428 14.5639C2.30893 13.2595 1.79825 11.6894 1.79825 10.0003C1.79825 8.31114 2.30578 6.75254 3.17546 5.4506C3.35621 5.17979 3.55305 4.92056 3.76339 4.67419C3.99094 4.40837 4.23516 4.15708 4.4943 3.92206C4.59384 3.83177 4.7463 3.83798 4.84133 3.93301L5.26603 4.35771L5.78657 4.87826C5.87999 4.97167 6.02864 4.9787 6.13393 4.89891C6.3324 4.74852 6.53985 4.60953 6.75516 4.4825C7.70653 3.92223 8.81485 3.59996 9.99908 3.59996C11.1833 3.59996 12.3026 3.9248 13.2572 4.49087C13.5389 4.65811 13.8078 4.84594 14.0593 5.05307C14.3314 5.27667 14.5849 5.52275 14.8167 5.78776C14.9035 5.88703 14.8954 6.03607 14.8022 6.12932L14.3706 6.56085L13.8414 7.09004C13.7509 7.18059 13.7414 7.3235 13.813 7.42969C13.9568 7.64307 14.0826 7.86961 14.1899 8.10659C14.4517 8.68423 14.5983 9.32491 14.5983 10.0003C14.5983 10.6757 14.4491 11.328 14.1828 11.9101C14.0439 12.2144 13.8734 12.5013 13.674 12.7657C13.4148 13.1098 13.1086 13.416 12.7644 13.6752C12.5 13.8746 12.2132 14.0451 11.9089 14.184C11.3274 14.4503 10.6809 14.5996 9.99908 14.5996C9.31723 14.5996 8.68299 14.4529 8.10535 14.1911C7.8687 14.0838 7.64213 13.9578 7.42834 13.8139C7.32221 13.7424 7.17945 13.752 7.08899 13.8425L6.7644 14.1671C6.65542 14.276 6.66579 14.4562 6.79157 14.5452C6.98081 14.6792 7.17853 14.8016 7.38426 14.9116C8.16388 15.3277 9.0535 15.5638 9.99908 15.5638C10.9447 15.5638 11.8459 15.3245 12.6287 14.9038C12.9194 14.7475 13.1941 14.5655 13.4514 14.3616C13.7885 14.0946 14.094 13.7891 14.361 13.452C14.5649 13.1954 14.7469 12.9207 14.9032 12.6293C15.3239 11.8458 15.5632 10.951 15.5632 9.99968C15.5632 9.11667 15.3593 8.29185 14.9978 7.55453C14.9479 7.45287 14.9657 7.33015 15.0457 7.25008L15.2903 7.00554C15.4095 6.88636 15.6092 6.91204 15.6867 7.06172C16.1422 7.94156 16.4001 8.9402 16.4001 9.99968C16.4001 11.1781 16.0785 12.2922 15.5175 13.2436C15.3905 13.4589 15.2515 13.6664 15.1011 13.8648C15.0214 13.9701 15.0284 14.1188 15.1218 14.2122L15.4439 14.5342C15.5506 14.641 15.7261 14.6336 15.8187 14.5144C15.9609 14.3314 16.0947 14.1415 16.2193 13.9454C16.9443 12.8049 17.3643 11.4515 17.3643 9.99968C17.3643 8.54786 16.9475 7.20539 16.2277 6.06812C16.0534 5.79216 15.861 5.52843 15.652 5.27885C15.3767 4.9495 15.0724 4.64396 14.7444 4.36736C14.4961 4.15766 14.2336 3.96404 13.9589 3.78843C12.8152 3.0577 11.4567 2.63444 9.99908 2.63444C8.61561 2.63444 7.33122 3.01284 6.22898 3.6712C6.12549 3.73301 5.99274 3.7188 5.90749 3.63355L5.67109 3.39715C5.55634 3.2824 5.57508 3.09118 5.71336 3.00625C6.96054 2.24029 8.42798 1.79821 9.99908 1.79821C11.6825 1.79821 13.2578 2.30895 14.563 3.18442C14.767 3.32142 14.9645 3.46723 15.155 3.62129C15.2595 3.7058 15.4115 3.70027 15.5065 3.60522L15.8272 3.28452C15.9325 3.17921 15.9269 3.00648 15.8118 2.912C15.6322 2.76467 15.4468 2.62404 15.2564 2.49035C13.7679 1.44635 11.9552 0.833334 9.99908 0.833334C8.04295 0.833334 6.2412 1.44314 4.75529 2.48135C4.48898 2.66725 4.23296 2.86665 3.98853 3.07893C3.66433 3.36067 3.36071 3.66493 3.07897 3.98849C2.8667 4.23292 2.66729 4.48894 2.48139 4.75524C1.44318 6.24244 0.833374 8.05062 0.833374 10.001C0.833374 11.9513 1.44639 13.7698 2.49039 15.2583C2.62405 15.4486 2.76465 15.6337 2.91195 15.8132C3.0065 15.9285 3.17941 15.9342 3.28482 15.8288L3.60527 15.5084C3.70031 15.4133 3.70584 15.2614 3.62128 15.1569C3.46713 14.9664 3.32112 14.7691 3.18464 14.5651C3.18452 14.5649 3.18446 14.5647 3.18446 14.5645L3.18446 14.5644ZM17.5274 4.77004C17.5272 4.77004 17.527 4.76994 17.5269 4.76977C17.3944 4.57941 17.2548 4.39398 17.1086 4.21418C17.0142 4.09817 16.8407 4.09203 16.735 4.19775L16.4143 4.51847C16.3194 4.61332 16.3137 4.76485 16.3977 4.86943C16.5514 5.06085 16.6968 5.25935 16.833 5.46411C17.6975 6.76348 18.2012 8.32272 18.2012 10.0003C18.2012 11.6779 17.6937 13.2481 16.824 14.55C16.6432 14.8209 16.4464 15.0801 16.236 15.3265C16.0085 15.5923 15.7643 15.8436 15.5051 16.0786C15.4056 16.1689 15.2531 16.1627 15.1581 16.0676L14.7334 15.6429L14.2129 15.1224C14.1194 15.029 13.9708 15.0219 13.8655 15.1017C13.667 15.2521 13.4596 15.3911 13.2443 15.5181C12.2929 16.0784 11.1846 16.4007 10.0004 16.4007C8.81613 16.4007 7.71874 16.0823 6.77058 15.5265C6.48755 15.3605 6.21803 15.174 5.96459 14.9675C5.69173 14.7452 5.43698 14.5014 5.20389 14.2381C5.11613 14.1389 5.12384 13.9891 5.21746 13.8955L5.64811 13.4649L6.17643 12.9366C6.26735 12.8456 6.27652 12.702 6.20391 12.5959C6.05907 12.3842 5.93163 12.16 5.82307 11.9249C5.55291 11.3389 5.40045 10.6873 5.40045 9.99968C5.40045 9.31204 5.54969 8.67201 5.816 8.08986C5.95494 7.78561 6.1254 7.49872 6.32481 7.23434C6.58404 6.8902 6.89023 6.58401 7.23437 6.32478C7.49874 6.12537 7.78563 5.95491 8.08989 5.81597C8.67139 5.54966 9.31786 5.40043 9.99971 5.40043C10.6816 5.40043 11.339 5.55223 11.925 5.82304C12.16 5.9316 12.3842 6.05904 12.5959 6.20388C12.702 6.27649 12.8457 6.26732 12.9366 6.1764L13.2612 5.8518C13.3698 5.7432 13.3599 5.56383 13.2352 5.47423C13.0469 5.33897 12.8498 5.21484 12.6448 5.10389C11.8581 4.67805 10.9575 4.43619 9.99971 4.43619C9.04191 4.43619 8.15293 4.67548 7.37009 5.09617C7.07934 5.25248 6.80467 5.43452 6.54737 5.63843C6.21031 5.90538 5.90476 6.21092 5.63781 6.54799C5.4339 6.80465 5.25186 7.07931 5.09555 7.37071C4.67487 8.15419 4.43557 9.04895 4.43557 10.0003C4.43557 10.8838 4.64414 11.7289 5.0149 12.4751C5.06556 12.577 5.04808 12.7006 4.96759 12.7811L4.72465 13.024C4.60585 13.1428 4.40679 13.1177 4.32876 12.969C3.86331 12.0816 3.59935 11.072 3.59935 10.0003C3.59935 8.81031 3.92097 7.70777 4.48189 6.7564C4.60892 6.54109 4.74791 6.33364 4.8983 6.13518C4.97809 6.02988 4.97106 5.88123 4.87764 5.78782L4.55558 5.46575C4.44886 5.35904 4.27331 5.36642 4.18071 5.48559C4.0385 5.6686 3.90473 5.85851 3.7801 6.05461C3.05515 7.1951 2.63511 8.5485 2.63511 10.0003C2.63511 11.4521 3.05837 12.8165 3.78911 13.9602C3.96471 14.2349 4.15833 14.4973 4.36803 14.7456C4.64528 15.0737 4.95018 15.3779 5.27952 15.6532C5.5291 15.8616 5.79284 16.054 6.06879 16.2289C7.20671 16.9487 8.55497 17.3656 10.0004 17.3656C11.3723 17.3656 12.6671 16.9871 13.7704 16.3288C13.874 16.267 14.0067 16.2812 14.0919 16.3664L14.3284 16.6029C14.4431 16.7176 14.4244 16.9088 14.2861 16.9937C13.0389 17.7597 11.5715 18.2018 10.0004 18.2018C8.31696 18.2018 6.76351 17.6975 5.46414 16.8336C5.25938 16.6974 5.06088 16.552 4.86946 16.3983C4.76488 16.3143 4.61335 16.32 4.5185 16.4149L4.19749 16.7359C4.09187 16.8415 4.09788 17.0148 4.21374 17.1091C4.39377 17.2555 4.57945 17.3951 4.77007 17.5277C6.25341 18.5607 8.05644 19.1667 10.001 19.1667C11.9456 19.1667 13.7589 18.5569 15.2448 17.5187C15.5111 17.3328 15.7671 17.1333 16.0116 16.9211C16.3358 16.6393 16.6394 16.3351 16.9211 16.0115C17.1334 15.7671 17.3328 15.5111 17.5187 15.2448C18.5569 13.7588 19.1667 11.9513 19.1667 10.001C19.1667 8.05074 18.5608 6.25359 17.5279 4.7703C17.5278 4.77014 17.5276 4.77004 17.5274 4.77004ZM7.0781 7.6986H12.9182V7.69924C13.0706 7.69924 13.1691 7.86006 13.0996 7.99516L10.1921 13.687C10.1162 13.8337 9.9052 13.8344 9.82929 13.687L6.8967 7.99451C6.82723 7.85942 6.92565 7.6986 7.0781 7.6986ZM10.3175 12.2686L12.0479 8.88098L12.0485 8.88033C12.0897 8.79992 12.0311 8.70407 11.9404 8.70407H8.46431C8.37361 8.70407 8.31507 8.79992 8.35624 8.88033L10.102 12.2686C10.1471 12.3567 10.2725 12.3561 10.3175 12.2686Z" fill="white"/>
</g>
<defs>
<clipPath id="clip0_239_3616">
<rect width="20" height="20" fill="white"/>
</clipPath>
</defs>
</svg>
