<svg width="128" height="44" viewBox="0 0 128 44" fill="none" xmlns="http://www.w3.org/2000/svg">
<path fill-rule="evenodd" clip-rule="evenodd" d="M5.6166 32.9541L5.61681 32.9555C5.61666 32.9552 5.61687 32.9558 5.61681 32.9555C5.94285 33.4449 6.29199 33.9195 6.66026 34.3767C6.86227 34.6274 6.84906 34.992 6.622 35.2201L5.85646 35.9892C5.60464 36.2421 5.19156 36.2284 4.96567 35.9517C4.61379 35.5208 4.2779 35.0766 3.95859 34.6198C1.46449 31.0475 0 26.6831 0 22.0023C0 17.3215 1.45681 12.9819 3.93707 9.41259C4.38118 8.77345 4.85757 8.159 5.36469 7.57237C6.03776 6.79584 6.76311 6.06561 7.53761 5.38943C8.12155 4.87997 8.73317 4.40139 9.36938 3.95523C12.9192 1.46353 17.2235 0 21.8967 0C26.5699 0 30.9003 1.47125 34.4563 3.97684C34.9112 4.2977 35.3542 4.63521 35.7831 4.9888C36.0581 5.21556 36.0716 5.6301 35.82 5.88286L35.0538 6.65254C34.8268 6.88064 34.4638 6.89392 34.2141 6.6911C33.7589 6.32136 33.2873 5.97142 32.7996 5.64261C29.6817 3.54149 25.9183 2.31571 21.8967 2.31571C18.1434 2.31571 14.6377 3.37668 11.6582 5.215C11.3278 5.41882 11.2831 5.87775 11.5572 6.15314L12.122 6.72053C12.3256 6.92511 12.6428 6.95922 12.89 6.81087C15.5232 5.23083 18.5916 4.32265 21.8967 4.32265C25.3789 4.32265 28.6244 5.33848 31.3568 7.09224C32.013 7.5137 32.64 7.97839 33.233 8.48167C34.0168 9.1455 34.7437 9.8788 35.4014 10.6692C35.9008 11.2682 36.3603 11.9012 36.7768 12.5635C38.4963 15.2929 39.4921 18.5149 39.4921 21.9992C39.4921 25.4836 38.4886 28.7317 36.7568 31.469C36.459 31.9395 36.1395 32.3954 35.7997 32.8346C35.5784 33.1206 35.159 33.1383 34.9041 32.8822L34.1348 32.1092C33.9117 31.885 33.8947 31.5282 34.0855 31.2755C34.4448 30.7992 34.7767 30.3013 35.0802 29.7846C36.4203 27.5014 37.1885 24.8274 37.1885 21.9992C37.1885 19.4565 36.5726 17.0598 35.4844 14.9481C35.2992 14.5889 34.822 14.5273 34.5373 14.8133L33.953 15.4002C33.7618 15.5924 33.7194 15.8869 33.8385 16.1309C34.7022 17.9004 35.1893 19.88 35.1893 21.9992C35.1893 24.2824 34.6176 26.4299 33.6126 28.3104C33.2392 29.0096 32.8043 29.6688 32.3172 30.2848C31.6795 31.0938 30.9495 31.8271 30.1443 32.4678C29.5295 32.9571 28.8733 33.394 28.1789 33.7691C26.3086 34.7788 24.1556 35.3531 21.8967 35.3531C19.6378 35.3531 17.5124 34.7866 15.6499 33.7877C15.1584 33.524 14.6861 33.2302 14.234 32.9086C13.9335 32.6948 13.9088 32.2625 14.1691 32.001L14.9445 31.2219C15.1607 31.0049 15.5017 30.9819 15.7553 31.1534C16.266 31.4987 16.8072 31.801 17.3726 32.0587C18.7526 32.6871 20.2677 33.0389 21.8967 33.0389C23.5257 33.0389 25.07 32.6809 26.4592 32.0417C27.1861 31.7083 27.8715 31.2991 28.503 30.8205C29.3252 30.1984 30.0567 29.4635 30.676 28.6375C31.1524 28.0031 31.5596 27.3146 31.8916 26.5843C32.5278 25.1871 32.8842 23.6218 32.8842 22.0008C32.8842 20.3797 32.5339 18.8422 31.9085 17.4558C31.6521 16.887 31.3515 16.3433 31.0079 15.8312C30.837 15.5765 30.8598 15.2334 31.076 15.0161L32.3403 13.746L33.3712 12.7104C33.594 12.4866 33.6132 12.1289 33.4059 11.8906C32.8522 11.2546 32.2466 10.664 31.5965 10.1274C30.9956 9.63026 30.3533 9.17947 29.6801 8.77808C27.3997 7.41953 24.7257 6.63991 21.8967 6.63991C19.0677 6.63991 16.4198 7.41335 14.147 8.75801C13.6327 9.06287 13.1371 9.39645 12.6629 9.75739C12.4114 9.94888 12.0563 9.93202 11.8331 9.7078L10.5895 8.45851L9.57492 7.43923C9.34791 7.21117 8.9837 7.19625 8.74588 7.41293C8.12679 7.97698 7.54337 8.58009 6.99975 9.21806C6.49724 9.80934 6.02701 10.4315 5.59519 11.0814C3.51755 14.2061 2.30508 17.9467 2.30508 22.0008C2.30508 26.0545 3.52539 29.8235 5.6166 32.9541C5.61673 32.9545 5.61652 32.9538 5.6166 32.9541ZM39.8805 9.44746C39.8808 9.44785 39.8812 9.4481 39.8817 9.4481C39.8822 9.4481 39.8826 9.44833 39.8828 9.44873C42.3505 13.0086 43.798 17.3218 43.798 22.0023C43.798 26.6831 42.3412 31.0212 39.861 34.5874C39.4168 35.2266 38.9404 35.841 38.4333 36.4277C37.7602 37.2042 37.0348 37.9343 36.2603 38.6105C35.6765 39.12 35.0648 39.5986 34.4286 40.0448C30.8788 42.5364 26.5468 44 21.9013 44C17.2558 44 12.9484 42.5457 9.40468 40.0664C8.94929 39.7482 8.50571 39.4132 8.07563 39.0618C7.79883 38.8356 7.78449 38.4196 8.0368 38.1662L8.80369 37.3957C9.03029 37.1681 9.39228 37.1544 9.64213 37.356C10.0994 37.7248 10.5736 38.0737 11.0628 38.4006C14.167 40.474 17.8782 41.6844 21.8998 41.6844C25.653 41.6844 29.1587 40.6233 32.1382 38.785C32.4686 38.5812 32.5133 38.1222 32.2392 37.8468L31.6744 37.2794C31.4708 37.0749 31.1538 37.0407 30.9063 37.189C28.2705 38.7691 25.1773 39.6773 21.8998 39.6773C18.4468 39.6773 15.2258 38.6769 12.5073 36.9495C11.8481 36.5296 11.218 36.068 10.6218 35.5677C9.83496 34.907 9.10656 34.1767 8.44423 33.3894C7.94327 32.7936 7.48072 32.1637 7.06119 31.5045C5.31548 28.7595 4.30432 25.4851 4.30432 22.0008C4.30432 18.5164 5.3078 15.2682 7.03968 12.5311C7.33741 12.0604 7.65698 11.6046 7.99672 11.1654C8.21794 10.8794 8.63732 10.8617 8.89227 11.1178L9.66167 11.8908C9.88484 12.115 9.90164 12.4717 9.71102 12.7244C9.35175 13.2007 9.0197 13.6986 8.71624 14.2154C7.37622 16.4986 6.60786 19.1448 6.60786 22.0008C6.60786 24.5728 7.23846 26.9958 8.35041 29.1255C8.53683 29.4826 9.01239 29.5427 9.29618 29.2575L9.87656 28.6746C10.0689 28.4813 10.1106 28.1849 9.98959 27.9402C9.10384 26.1494 8.60559 24.1211 8.60559 22.0008C8.60559 19.7176 9.17725 17.57 10.1823 15.6896C10.5557 14.9904 10.9906 14.3312 11.4777 13.7152C12.1155 12.9062 12.8454 12.1729 13.6506 11.5322C14.2653 11.0428 14.9215 10.6059 15.6161 10.2308C17.4863 9.22115 19.61 8.64686 21.8982 8.64686C24.1863 8.64686 26.3378 9.22733 28.2171 10.2493C28.7071 10.5156 29.1778 10.8135 29.6277 11.1382C29.9257 11.3532 29.9492 11.7837 29.6898 12.0443L28.9144 12.8234C28.6971 13.0416 28.3539 13.0636 28.1005 12.8893C27.5947 12.5417 27.059 12.2358 26.4976 11.9753C25.0976 11.3254 23.5271 10.961 21.8982 10.961C20.2693 10.961 18.7248 11.3192 17.3357 11.9583C16.6088 12.2918 15.9234 12.7009 15.2919 13.1795C14.4697 13.8016 13.7382 14.5365 13.1189 15.3624C12.6426 15.9969 12.2353 16.6854 11.9034 17.4157C11.2672 18.8129 10.9107 20.3488 10.9107 21.9992C10.9107 23.6496 11.2749 25.2134 11.9203 26.6198C12.1796 27.184 12.4841 27.7222 12.8301 28.2301C13.0036 28.4848 12.9817 28.8296 12.7645 29.0477L11.5023 30.3157L10.4735 31.3493C10.2498 31.5739 10.2314 31.9333 10.4411 32.1714C10.9979 32.8033 11.6065 33.3886 12.2584 33.922C12.8638 34.4176 13.5077 34.8653 14.1839 35.2636C16.449 36.5975 19.0706 37.3617 21.8998 37.3617C24.7288 37.3617 27.3767 36.5882 29.6494 35.2435C30.1638 34.9386 30.6594 34.6051 31.1335 34.2442C31.385 34.0526 31.7402 34.0696 31.9633 34.2938L33.2069 35.543L34.2215 36.5623C34.4486 36.7903 34.8128 36.8053 35.0506 36.5885C35.6697 36.0246 36.2531 35.4214 36.7966 34.7835C37.2992 34.1922 37.7694 33.57 38.2012 32.9202C40.279 29.7954 41.4913 26.027 41.4913 22.0008C41.4913 17.9745 40.2882 14.2323 38.2228 11.1139C37.8974 10.6224 37.5501 10.146 37.1828 9.68664C36.9823 9.43564 36.996 9.07197 37.2225 8.84434L37.9887 8.07462C38.2412 7.82088 38.6558 7.83561 38.8811 8.11403C39.2304 8.54554 39.5641 8.99059 39.8805 9.44746ZM28.8704 16.4767H14.9185C14.5543 16.4767 14.3192 16.8627 14.4852 17.1869L21.4911 30.8489C21.6723 31.2025 22.1764 31.2009 22.3577 30.8489L29.3038 17.1884C29.4698 16.8642 29.2346 16.4782 28.8704 16.4782V16.4767ZM26.7912 19.3143L22.6574 27.4446C22.5498 27.6545 22.2502 27.6561 22.1426 27.4446L17.9719 19.3128C17.8736 19.1198 18.0134 18.8897 18.2301 18.8897H26.5345C26.7512 18.8897 26.8911 19.1198 26.7927 19.3128L26.7912 19.3143ZM60.9681 14.7168C62.2377 13.9507 63.7241 13.5088 65.3128 13.5088C69.9815 13.5088 73.7651 17.3098 73.7651 22C73.7651 26.6902 69.9815 30.4912 65.3128 30.4912C60.6441 30.4912 56.8606 26.6902 56.8606 22C56.8606 20.3706 57.3179 18.8494 58.11 17.5569C58.3071 17.2352 58.7487 17.2026 59.0145 17.4697L60.0555 18.5155C60.2601 18.721 60.2911 19.0403 60.1554 19.297C59.717 20.1268 59.4685 21.0724 59.4685 22.0772C59.4685 25.3625 62.1194 28.0257 65.3897 28.0257C68.6599 28.0257 71.3109 25.3625 71.3109 22.0772C71.3109 18.7919 68.6599 16.1287 65.3897 16.1287C64.4161 16.1287 63.4991 16.3652 62.6899 16.7825C62.4357 16.9138 62.1225 16.8806 61.9204 16.6775L60.8762 15.6285C60.6086 15.3597 60.6435 14.9125 60.9681 14.7168ZM89.0099 19.1439L89.5477 18.6035L90.1624 17.986C90.393 17.7544 90.8051 17.8197 90.9769 18.1404C91.5148 19.1439 91.8975 20.3033 91.8975 22.0015C91.8975 23.6998 91.504 25.0321 90.7188 26.3105C89.935 27.5718 88.8377 28.5583 87.4316 29.27C86.0254 29.9818 84.3888 30.3368 82.5247 30.3368H77.4533C77.1139 30.3368 76.8386 30.0603 76.8386 29.7193V14.2807C76.8386 13.9396 77.1139 13.6632 77.4533 13.6632H82.5247C84.3888 13.6632 86.0254 14.0182 87.4316 14.73C87.7121 14.8721 87.9793 15.025 88.2343 15.1887C88.5561 15.3952 88.576 15.8479 88.2951 16.1075L87.2661 17.0596C87.0491 17.2603 86.7227 17.2746 86.4713 17.1197C86.3479 17.0437 86.22 16.9716 86.0869 16.9037C85.1556 16.4189 83.8893 16.1766 82.5969 16.1766H80.1427C79.8032 16.1766 79.528 16.4531 79.528 16.7941V27.2028C79.528 27.5438 79.8032 27.8203 80.1427 27.8203H82.5969C83.8893 27.8203 85.1541 27.578 86.0869 27.0932C87.0351 26.6084 87.9172 25.7747 88.4244 24.9009C88.9484 24.0271 89.2096 23.1625 89.2096 21.9985C89.2096 21.2259 89.095 20.4852 88.8697 19.8587C88.7809 19.6116 88.825 19.3296 89.0099 19.1439ZM103.425 13.5088C98.7561 13.5088 94.9725 17.3098 94.9725 22C94.9725 23.5997 95.4142 25.0965 96.1807 26.3742C96.3759 26.6995 96.8205 26.7342 97.0879 26.4656L98.0805 25.4684C98.2798 25.2682 98.3149 24.959 98.1902 24.705C97.8008 23.9124 97.582 23.0202 97.582 22.0772C97.582 18.7919 100.233 16.1287 103.503 16.1287C106.773 16.1287 109.424 18.7919 109.424 22.0772C109.424 25.3625 106.773 28.0257 103.503 28.0257C102.47 28.0257 101.499 27.7594 100.654 27.2923C100.398 27.1505 100.075 27.1796 99.8675 27.3878L98.9265 28.3331C98.6605 28.6003 98.6932 29.0443 99.0138 29.2419C100.298 30.0344 101.809 30.4912 103.428 30.4912C108.097 30.4912 111.88 26.6902 111.88 22C111.88 17.3098 108.093 13.5088 103.425 13.5088ZM118.126 27.4251C119.091 27.7709 120.08 27.9439 121.093 27.9439H121.095C121.435 27.9439 121.773 27.9289 122.091 27.8989C122.281 27.881 122.471 27.9446 122.606 28.0802L123.808 29.2879C124.124 29.6052 124.004 30.1368 123.569 30.2363C122.826 30.4062 121.983 30.4912 121.095 30.4912C119.818 30.4912 118.594 30.3106 117.426 29.9493C116.452 29.6356 115.647 29.2501 115.009 28.7938C114.786 28.6347 114.721 28.3382 114.831 28.0873L115.375 26.8564C115.537 26.4875 116.004 26.3719 116.346 26.5839C116.864 26.9056 117.457 27.186 118.126 27.4251ZM126.982 28.038C127.465 27.2831 127.706 26.4648 127.706 25.5848C127.706 24.7048 127.526 24.0039 127.168 23.4389C126.825 22.8723 126.366 22.4246 125.789 22.0942C125.229 21.7638 124.597 21.4967 123.896 21.2929C123.211 21.0891 122.518 20.9069 121.817 20.751C121.116 20.5781 120.477 20.4052 119.901 20.2323C119.34 20.0594 118.726 19.8232 118.368 19.5252C118.026 19.2102 117.854 18.8011 117.854 18.2994C117.854 17.8748 117.97 17.4981 118.204 17.1677C118.453 16.8373 118.836 16.5702 119.349 16.3665C119.879 16.1627 120.718 16.0592 121.559 16.0592C122.275 16.0592 123.023 16.1688 123.802 16.3896C124.36 16.5355 124.905 16.7421 125.439 17.0092C125.777 17.1782 126.197 17.0382 126.338 16.6865L126.838 15.4434C126.948 15.1704 126.851 14.8551 126.596 14.7115C125.979 14.3655 125.281 14.0914 124.503 13.8886C123.537 13.6369 122.564 13.5119 121.582 13.5119C120.086 13.5119 118.848 13.7403 117.866 14.1958C116.901 14.6358 116.175 15.2333 115.693 15.9882C115.226 16.7277 114.992 17.5444 114.992 18.4414C114.992 19.3384 115.172 20.0455 115.53 20.6121C115.888 21.1787 116.348 21.6341 116.908 21.9799C117.485 22.3103 118.116 22.5851 118.802 22.8059C119.503 23.0097 120.196 23.1919 120.881 23.3478L120.989 23.372C121.661 23.5229 122.396 23.6877 122.928 23.8665C123.504 24.0394 123.971 24.2834 124.33 24.5983C124.687 24.8978 124.867 25.2977 124.867 25.801C124.867 25.9064 124.859 26.0091 124.842 26.1091C124.801 26.3565 124.843 26.6225 125.019 26.7997L126.305 28.091C126.502 28.2891 126.83 28.2773 126.98 28.0411L126.982 28.038Z" fill="#000607"/>
</svg>
