<svg width="24" height="24" viewBox="0 0 24 24" fill="none" xmlns="http://www.w3.org/2000/svg">
<path fill-rule="evenodd" clip-rule="evenodd" d="M16.8037 8.91545C17.4477 8.28381 18.0871 6.81 15.4036 8.59963C11.5906 11.18 7.83244 13.6024 7.83244 13.6024C7.44559 13.7739 7.02737 13.867 6.6029 13.8761C6.17844 13.8851 5.75649 13.8099 5.3624 13.655C3.75227 13.1813 1.87262 12.5496 1.87262 12.5496C1.87262 12.5496 0.589178 11.7589 2.78619 10.9168C2.78619 10.9168 12.0748 7.17845 15.2962 5.8614C16.5307 5.33504 20.7182 3.65068 20.7182 3.65068C20.7182 3.65068 22.6515 2.91263 22.4905 4.7034C22.4368 5.44031 22.0074 8.02178 21.5781 10.8115C20.9328 14.7604 20.2351 19.0788 20.2351 19.0788C20.2351 19.0788 20.1278 20.2895 19.2154 20.5C18.2387 20.4838 17.295 20.1506 16.5318 19.5525C16.3171 19.3946 12.5053 17.0249 11.1087 15.8669C10.9666 15.7725 10.8512 15.6444 10.7732 15.4945C10.6952 15.3446 10.657 15.1778 10.6624 15.0096C10.6678 14.8414 10.7164 14.6773 10.8038 14.5325C10.8912 14.3876 11.0146 14.2669 11.1624 14.1814C13.0992 12.4444 15.4082 10.2851 16.8037 8.91545Z" fill="#527382"/>
</svg>
